<svg width="105" height="32" viewBox="0 0 105 32" fill="none" xmlns="http://www.w3.org/2000/svg">
<path d="M36.4162 12.4238C36.4162 16.5152 39.8019 19.0704 44.4026 19.0704H59.8677C60.979 19.0704 61.6865 19.786 61.6865 20.91V23.5701C61.6865 24.6941 60.979 25.4097 59.8677 25.4097H38.0831V32.0037H60.0196C64.6202 32.0037 68.054 28.5269 68.054 23.8773V20.9624C68.054 16.3091 64.6165 12.836 60.0196 12.836H44.6026C43.4913 12.836 42.7838 12.1204 42.7838 10.9964V7.82672C42.7838 7.05866 43.2394 6.60157 43.9951 6.60157H65.424V0H47.077C44.6026 0 42.6319 1.99321 42.6319 4.49971V6.2906C42.6319 6.44421 42.5319 6.59782 42.3282 6.59782C39.1944 6.69898 36.4162 8.48987 36.4162 12.4238ZM73.3622 22.6484V32.0037H79.8816V17.3319C79.8816 16.6688 80.3854 16.5639 80.741 16.9235L96.1062 32.0037H105L88.7236 16.0019L105 0H96.1062L80.741 15.0802C80.3854 15.4399 79.8816 15.335 79.8816 14.6718V0H73.3622V9.4078C73.3622 12.7835 75.5366 14.8254 79.426 15.9007C79.5779 15.9532 79.5779 16.1068 79.426 16.1555C75.5329 17.2308 73.3622 19.2727 73.3622 22.6484ZM31.6415 12.8322V20.5503C31.6415 23.5663 29.3671 25.3048 25.8296 25.4059C25.6258 25.4059 25.5258 25.5595 25.5258 25.7131V27.504C25.5258 29.9581 23.5552 32.0037 21.077 32.0037H7.86778C3.52272 32.0037 0 28.4407 0 24.0459V7.95785C0 3.56305 3.52272 0 7.86778 0H25.374V6.59782H8.33821C7.33437 6.59782 6.51944 7.41833 6.51944 8.43367V23.5663C6.51944 24.5817 7.33437 25.4059 8.33821 25.4059H24.2071C24.8776 25.4059 25.4184 24.8552 25.4184 24.1808V19.0704H22.9032C20.5585 19.0704 18.6952 17.1858 18.6952 14.8179V12.836H31.6341L31.6415 12.8322Z" fill="#F36633"/>
</svg>
