<svg width="175" height="234" viewBox="0 0 175 234" fill="none" xmlns="http://www.w3.org/2000/svg">
<path d="M32.2318 228.975C29.8501 229.258 27.5931 229.524 25.0802 229.82C25.0244 228.962 24.9555 228.281 24.9358 227.6C23.9976 195.671 23.0757 163.742 22.0883 131.816C22.0522 130.649 21.4125 129.495 21.0352 128.341C20.9696 128.137 20.776 127.976 20.7137 127.772C19.9099 125.138 18.6174 123.227 15.2843 124.391V117.203C15.3958 117.111 15.4451 117.042 15.4779 117.049C18.5387 117.644 19.5655 115.73 20.8777 113.379C22.1998 111.015 23.6531 109.131 20.9171 106.763C23.2102 105.438 25.2278 104.274 27.347 103.047C28.1016 104.3 28.7708 105.402 29.4368 106.507C29.6435 106.658 29.8501 106.806 30.0568 106.957C30.3291 106.431 30.5292 105.849 30.8835 105.389C36.3785 98.3221 43.2776 93.1496 51.5316 89.6641C57.1184 87.3064 62.5708 84.6264 68.0494 82.0221C68.5907 81.7656 69.0007 81.0817 69.3058 80.5095C69.5814 79.9933 69.565 79.329 69.7914 78.7766C70.3753 77.3495 70.0341 76.3433 68.9548 75.1628C57.2103 62.3122 58.388 40.3006 71.3595 28.887C82.5562 19.0353 98.6704 20.9327 107.827 33.1847C117.258 45.8051 116.435 63.8972 105.848 75.633C105.13 76.4288 105.11 77.1127 105.228 78.1222C105.524 80.6608 106.823 81.884 109.234 82.7159C114.965 84.6922 120.654 86.8394 126.211 89.2596C129.941 90.884 133.402 93.1266 137.021 95.0206C137.667 95.3593 138.546 95.606 139.225 95.4613C143.802 94.4912 148.191 96.0828 150.796 99.7853C153.401 103.488 153.42 108.19 150.96 112.162C150.622 112.708 150.487 113.616 150.681 114.218C152.475 119.745 153.263 125.375 153.089 131.205C152.121 163.186 151.235 195.171 150.307 227.153C150.248 229.162 150.048 231.168 149.903 233.335C147.45 233.167 145.183 233.013 142.758 232.845C142.758 232.253 142.745 231.776 142.758 231.3C143.444 209.012 144.139 186.724 144.819 164.436C145.173 152.825 145.481 141.214 145.829 129.607C145.947 125.621 145.324 121.754 144.221 117.937C143.975 117.088 143.601 116.871 142.726 116.904C134.321 117.213 128.888 109.584 131.959 101.781C132.323 100.857 132.201 100.344 131.355 99.9498C127.402 98.105 123.508 96.1189 119.483 94.4584C113.623 92.0415 107.679 89.8219 101.738 87.6122C100.412 87.1189 99.6513 86.4646 99.4578 85.0243C99.297 83.8504 98.8968 82.7094 98.5392 81.3119C91.2268 84.781 83.993 84.8106 76.674 81.3086C76.2771 82.8738 76.0179 84.2746 75.5422 85.5932C75.3159 86.2245 74.7844 86.9414 74.2038 87.2143C67.0783 90.5552 59.9201 93.8336 52.7618 97.1021C47.8836 99.3316 43.5597 102.35 39.7805 106.151C39.518 106.415 39.3048 106.724 39.1539 106.908C40.8139 108.246 42.592 109.377 43.9698 110.877C45.1607 112.176 46.0858 113.813 46.7714 115.454C47.2668 116.638 47.8081 117.095 49.0219 116.947C49.7141 116.865 50.426 116.93 51.2757 116.93V124.007C51.1609 124.076 51.0657 124.191 50.987 124.178C48.3625 123.727 46.6927 124.655 46.0497 127.367C45.8824 128.071 45.387 128.811 44.8359 129.291C43.4712 130.478 43.5597 131.619 44.5931 132.925C44.9212 133.339 45.118 133.858 45.4723 134.509C43.3924 135.706 41.3814 136.867 39.4492 137.979C39.249 137.883 39.1703 137.873 39.1572 137.837C38.1205 135.105 36.2112 134.401 33.4325 135.052C32.2811 135.322 30.9688 134.914 29.5122 134.799C30.421 166.179 31.3264 197.48 32.2384 228.981L32.2318 228.975ZM68.1051 53.0623C68.1773 58.6162 69.5256 63.621 72.5766 68.1062C80.0498 79.0923 93.7659 79.5395 101.925 69.0696C109.05 59.9282 108.739 45.3645 101.233 36.5585C93.6675 27.6835 81.7655 27.6013 74.1152 36.4204C69.9488 41.2246 68.2101 46.9429 68.1019 53.0623H68.1051ZM40.4924 120.613C40.5088 116.648 37.3135 113.422 33.3144 113.366C29.404 113.31 26.0446 116.628 26.0479 120.544C26.0512 124.464 29.3777 127.815 33.2587 127.815C37.2348 127.815 40.476 124.589 40.4924 120.617V120.613ZM145.484 106.046C145.494 104.096 143.949 102.511 142.001 102.472C140.003 102.432 138.313 104.08 138.333 106.05C138.352 107.98 139.944 109.624 141.83 109.66C143.798 109.699 145.475 108.039 145.484 106.043V106.046Z" fill="#08101E"/>
<path d="M112.951 102.521C112.951 103.169 112.951 103.708 112.951 104.244C112.951 118.213 112.951 132.178 112.954 146.147C112.954 150.994 111.317 155.163 107.741 158.465C106.872 159.267 105.842 159.971 104.769 160.46C99.5004 162.867 94.2088 165.222 88.8811 167.491C88.1463 167.803 87.0506 167.803 86.319 167.491C81.2964 165.34 76.3526 163.009 71.3332 160.852C65.9039 158.52 63.3384 154.163 62.4067 148.593C62.2558 147.682 62.2591 146.739 62.2558 145.808C62.2427 132.004 62.2427 118.203 62.2394 104.399C62.2394 103.81 62.2394 103.222 62.2394 102.521H112.951ZM101.698 126.637C95.9804 135.147 90.5018 143.296 84.9674 151.533C82.8777 150.112 80.9552 148.804 78.9508 147.442C81.9624 142.947 84.8657 138.61 87.9987 133.927H73.5444C79.0459 125.726 84.3146 117.874 89.7079 109.834H69.5355V111.863C69.5355 119.423 69.5355 126.986 69.5355 134.546C69.5355 138.492 69.483 142.437 69.5584 146.38C69.6306 150.139 71.1266 152.963 74.8271 154.469C78.7211 156.054 82.5069 157.912 86.3879 159.543C87.0801 159.836 88.1004 159.842 88.7926 159.556C92.4767 158.027 96.046 156.212 99.7629 154.778C104.07 153.121 105.717 149.961 105.711 145.584C105.697 134.243 105.711 122.902 105.704 111.561C105.704 110.985 105.652 110.41 105.615 109.729C103.559 109.729 101.698 109.637 99.8547 109.778C99.1724 109.831 98.2866 110.265 97.9061 110.811C94.5434 115.671 91.2694 120.597 87.979 125.506C87.7854 125.792 87.6804 126.138 87.4541 126.631H101.692L101.698 126.637Z" fill="#08101E"/>
<path d="M134.514 233.013H127.579C127.513 232.737 127.422 232.533 127.428 232.329C127.704 223.717 126.208 215.309 124.502 206.927C122.819 198.673 122.284 190.328 122.491 181.923C122.517 180.838 122.494 179.753 122.494 178.724C116.274 176.803 113.197 173.397 112.954 168.29C112.695 162.9 115.392 159.592 122.609 156.656C121.625 147.252 124.167 138.446 128.045 129.686C130.253 130.57 132.408 131.432 134.665 132.336C133.779 134.753 132.976 137.071 132.083 139.35C129.751 145.308 129.557 151.53 129.823 157.797C129.843 158.297 130.249 158.895 130.65 159.25C136.04 164.058 136.053 171.43 130.719 176.238C130.207 176.698 129.869 177.589 129.829 178.303C129.114 190.713 131.073 202.846 133.297 215C134.314 220.56 134.239 226.321 134.645 231.994C134.668 232.303 134.57 232.618 134.517 233.006L134.514 233.013ZM123.882 171.345C125.807 171.318 127.385 169.71 127.392 167.77C127.399 165.761 125.729 164.097 123.751 164.15C121.841 164.199 120.211 165.853 120.211 167.734C120.211 169.714 121.9 171.371 123.878 171.341L123.882 171.345Z" fill="#08101E"/>
<path d="M96.9743 214.441C96.2723 210.922 94.0677 210.758 91.3251 211.277C90.0949 211.511 88.5268 210.626 87.5033 211.097C86.5027 211.557 85.9975 213.102 85.2068 214.276C83.1532 213.093 81.1783 211.955 79.2657 210.85C79.2362 210.623 79.1705 210.478 79.2165 210.422C80.9158 208.328 81.1061 206.315 78.9081 204.421C78.8294 204.356 78.7867 204.237 78.7506 204.135C77.8583 201.577 76.7265 199.357 73.2327 200.61V193.366C73.3376 193.297 73.3901 193.238 73.4295 193.245C76.4575 193.787 77.504 191.913 78.8359 189.565C80.1875 187.184 81.5096 185.307 78.895 182.962C81.1323 181.667 83.1007 180.525 85.2429 179.286C85.7678 180.131 86.3091 180.867 86.7028 181.676C87.1063 182.498 87.5984 182.666 88.517 182.568C90.131 182.393 91.8041 182.262 93.3919 182.512C94.7894 182.732 95.5243 182.367 96.0525 181.15C96.3084 180.558 96.6922 180.022 97.1384 179.253C99.2347 180.46 101.242 181.617 103.191 182.742C103.204 182.988 103.257 183.13 103.207 183.189C101.475 185.293 101.397 187.296 103.542 189.18C103.621 189.249 103.686 189.354 103.719 189.453C104.552 192.084 105.77 194.172 109.221 192.972V200.212C109.132 200.278 109.08 200.347 109.044 200.341C106.009 199.759 104.881 201.551 103.657 203.994C102.499 206.309 100.498 208.183 103.644 210.557C101.305 211.919 99.3396 213.066 96.9743 214.444V214.441ZM84.016 196.825C84.0357 200.85 87.3655 204.116 91.3743 204.037C95.2717 203.961 98.4998 200.604 98.4506 196.681C98.4014 192.827 95.1372 189.575 91.312 189.575C87.2178 189.575 83.9963 192.774 84.016 196.825Z" fill="#08101E"/>
<path d="M45.3903 146.278H52.5289C52.5846 146.646 52.6699 146.956 52.6699 147.268C52.6732 161.46 52.6962 175.656 52.6568 189.848C52.6339 197.897 50.7049 205.697 49.5075 213.599C48.6151 219.485 48.3232 225.46 47.7655 231.395C47.7195 231.878 47.713 232.368 47.6834 232.977H40.5908C40.5646 232.421 40.5252 231.842 40.5088 231.264C40.2595 221.981 42.2705 212.981 43.7795 203.905C44.6391 198.736 45.2296 193.471 45.3149 188.24C45.5281 175.037 45.387 161.828 45.387 148.619C45.387 147.916 45.387 147.212 45.387 146.281L45.3903 146.278Z" fill="#08101E"/>
<path d="M2.89349 211.192H9.92381V218.396H2.89349V211.192Z" fill="#08101E"/>
<path d="M166.917 152.01H173.957V159.175H166.917V152.01Z" fill="#08101E"/>
<path d="M75.5258 2.42298C78.0486 1.9133 80.4237 1.42992 83.0515 0.900513C83.4189 3.38973 83.7601 5.68166 84.1177 8.10511C81.7327 8.57862 79.4658 9.0324 76.9824 9.52564C76.5067 7.20412 76.0441 4.93851 75.5291 2.42298H75.5258Z" fill="#08101E"/>
<path d="M175 129.768H167.714C167.543 127.581 167.369 125.388 167.182 123.02C169.466 122.682 171.71 122.346 174.324 121.958C174.551 124.569 174.767 127.065 175 129.764V129.768Z" fill="#08101E"/>
<path d="M164.253 92.8504C165.601 95.1719 166.831 97.283 168.18 99.6012C165.939 100.732 163.872 101.775 161.694 102.87C160.536 100.887 159.42 98.9797 158.213 96.9147C160.136 95.6191 162.061 94.3235 164.253 92.8504Z" fill="#08101E"/>
<path d="M46.7715 61.8847H39.5082C39.3343 59.7013 39.1703 57.6001 38.98 55.2095C41.2272 54.8577 43.5401 54.496 46.1416 54.085C46.3581 56.7682 46.5582 59.2245 46.7715 61.8814V61.8847Z" fill="#08101E"/>
<path d="M28.1508 77.8953C30.3947 76.4584 32.4418 75.1496 34.6004 73.7719C35.8864 75.9849 37.051 77.9973 38.2484 80.059C36.2374 81.3546 34.3708 82.5581 32.3368 83.8668C30.9885 81.9432 29.6533 80.0393 28.1508 77.8953Z" fill="#08101E"/>
<path d="M0.528176 123.389H7.72252C7.55193 125.99 7.39118 128.502 7.21403 131.224C4.63876 130.833 2.35219 130.485 0 130.123C0.180433 127.828 0.347743 125.677 0.528176 123.385V123.389Z" fill="#08101E"/>
<path d="M1.18427 159.816V152.75H8.26707V159.816H1.18427Z" fill="#08101E"/>
<path d="M125.224 34.5231C124.098 32.2608 123.062 30.1826 121.946 27.9466C124.134 26.8483 126.201 25.8125 128.432 24.6945C129.528 26.8746 130.564 28.9429 131.693 31.1888C129.551 32.2936 127.497 33.3525 125.224 34.5231Z" fill="#08101E"/>
<path d="M127.015 40.511C129.255 39.8172 131.43 39.1464 133.94 38.3704C134.547 40.9155 135.128 43.362 135.764 46.0353C133.179 46.4332 130.892 46.785 128.573 47.1402C128.045 44.891 127.563 42.8325 127.018 40.511H127.015Z" fill="#08101E"/>
<path d="M40.4989 40.0243C42.9364 40.3762 45.2197 40.705 47.6834 41.0601C47.3029 43.5231 46.9453 45.815 46.5615 48.3042C44.1601 47.9359 41.88 47.5874 39.4032 47.2092C39.7706 44.7923 40.1216 42.507 40.4989 40.0211V40.0243Z" fill="#08101E"/>
<path d="M135.82 60.7701H128.596C128.753 58.2019 128.904 55.6897 129.072 52.9736C131.611 53.3287 133.861 53.6411 136.273 53.9798C136.125 56.2125 135.977 58.4091 135.82 60.7733V60.7701Z" fill="#08101E"/>
<path d="M47.5128 67.0901C48.4773 69.0729 49.3893 70.9768 50.3308 72.8643C50.7245 73.6568 50.5736 74.1566 49.7371 74.5446C48.1033 75.2976 46.509 76.1295 44.7899 76.9845C43.6844 75.1562 42.5558 73.3773 41.552 71.5293C41.4076 71.2629 41.7488 70.4671 42.0802 70.2567C43.7336 69.2077 45.4624 68.2706 47.5161 67.0901H47.5128Z" fill="#08101E"/>
<path d="M147.768 75.7843C146.538 77.948 145.409 79.9242 144.172 82.0978C142.046 80.8647 140.003 79.6809 137.821 78.4149C139.055 76.294 140.219 74.2914 141.485 72.1179C143.601 73.3542 145.596 74.5183 147.768 75.7843Z" fill="#08101E"/>
<path d="M154.401 81.3612C155.976 82.9626 157.577 84.587 159.21 86.2509C157.56 87.7733 155.858 89.3451 154.172 90.9038C152.82 89.5062 151.173 87.8062 149.657 86.2344C151.114 84.7383 152.731 83.0744 154.401 81.3579V81.3612Z" fill="#08101E"/>
<path d="M1.93225 114.546C2.78521 112.304 3.53974 110.331 4.37301 108.141C6.55789 108.808 8.75917 109.482 11.2951 110.255C10.3667 112.738 9.48746 115.089 8.54593 117.604C6.19046 116.516 4.09088 115.543 1.93225 114.546Z" fill="#08101E"/>
<path d="M7.87012 137.814V145.203H0.889018C0.784039 143.184 0.639692 141.073 0.606887 138.962C0.603606 138.695 1.17771 138.209 1.51561 138.179C3.51349 138.005 5.52122 137.936 7.87012 137.814Z" fill="#08101E"/>
<path d="M166.487 116.148C165.772 113.754 165.093 111.485 164.368 109.055C166.739 108.374 168.96 107.74 171.345 107.052C172.025 109.407 172.654 111.587 173.347 113.984C171.08 114.698 168.878 115.391 166.49 116.144L166.487 116.148Z" fill="#08101E"/>
<path d="M174.688 137.413C174.57 139.912 174.462 142.188 174.357 144.424H167.09C167.209 141.918 167.317 139.646 167.438 137.058C169.813 137.173 172.113 137.288 174.688 137.413Z" fill="#08101E"/>
<path d="M50.6885 18.7788C52.332 17.0294 53.7788 15.4905 55.3108 13.8596C57.1381 15.3195 58.949 16.7664 60.9797 18.3908C59.1458 20.3638 57.4268 22.215 55.5765 24.2077C53.828 22.2644 52.2763 20.5446 50.6852 18.7821L50.6885 18.7788Z" fill="#08101E"/>
<path d="M1.36475 167.481C3.88752 167.336 6.15113 167.208 8.6083 167.067C8.73952 169.546 8.86418 171.867 9.00197 174.442H1.73217C1.61735 172.246 1.49597 169.973 1.36475 167.481Z" fill="#08101E"/>
<path d="M113.446 17.7693C115.365 16.0627 117.075 14.5468 118.925 12.9027C120.516 14.685 122.025 16.3784 123.439 17.9601C121.831 19.7324 120.309 21.4128 118.646 23.2509C116.868 21.3766 115.228 19.6502 113.446 17.7693Z" fill="#08101E"/>
<path d="M172.225 218.235H165.224V210.863C167.75 210.978 170.056 211.087 172.549 211.202C172.438 213.619 172.333 215.888 172.221 218.239L172.225 218.235Z" fill="#08101E"/>
<path d="M173.586 166.882V173.959H166.474V166.882H173.586Z" fill="#08101E"/>
<path d="M1.81744 182.117C4.22868 181.979 6.48901 181.847 9.04131 181.703C9.15941 184.182 9.27095 186.527 9.39234 189.016C6.89908 189.147 4.63547 189.269 2.16847 189.401C2.05037 186.941 1.93883 184.629 1.81744 182.12V182.117Z" fill="#08101E"/>
<path d="M11.8692 94.363C14.0639 95.8361 15.9535 97.1021 17.9678 98.4503C16.6359 100.466 15.3827 102.357 14.0311 104.402C12.0266 103.208 10.1272 102.077 7.98822 100.805C9.29062 98.641 10.5372 96.576 11.8692 94.363Z" fill="#08101E"/>
<path d="M127.097 66.3798C129.485 67.1723 131.683 67.9056 134.029 68.6849C133.215 71.0525 132.461 73.2523 131.644 75.6297C129.538 74.8997 127.536 74.2388 125.571 73.4891C125.309 73.3904 125.004 72.7755 125.083 72.5124C125.693 70.4869 126.391 68.4909 127.097 66.3798Z" fill="#08101E"/>
<path d="M106.081 4.47156C108.194 5.70137 110.159 6.84898 112.275 8.08208C111.179 10.1636 110.146 12.1299 108.978 14.3528C106.777 13.1723 104.648 12.028 102.4 10.8212C103.66 8.64766 104.805 6.67141 106.085 4.47156H106.081Z" fill="#08101E"/>
<path d="M21.8947 93.4456C20.0379 91.3871 18.5091 89.6904 16.8262 87.8194C18.6272 86.1884 20.343 84.6363 21.9865 83.15C23.7548 84.7942 25.3885 86.3166 27.0157 87.8292C25.2704 89.743 23.6695 91.5022 21.898 93.4456H21.8947Z" fill="#08101E"/>
<path d="M49.4812 35.5852C47.2307 34.4474 45.164 33.4018 42.9692 32.2903C44.0715 30.0773 45.1082 28.0024 46.2105 25.7861C48.4249 26.8713 50.5015 27.8906 52.7192 28.9758C51.6267 31.2019 50.6065 33.2834 49.4812 35.5819V35.5852Z" fill="#08101E"/>
<path d="M98.1816 1.9363C97.8372 4.32687 97.5222 6.52673 97.1614 9.02581C94.7698 8.67068 92.4373 8.32541 89.885 7.94726C90.2754 5.53367 90.6461 3.24832 91.0463 0.76239C93.4674 1.16027 95.7441 1.53513 98.1784 1.93959L98.1816 1.9363Z" fill="#08101E"/>
<path d="M172.631 203.51H165.375C165.493 201.034 165.604 198.723 165.719 196.349H172.982C172.858 198.867 172.746 201.173 172.631 203.51Z" fill="#08101E"/>
<path d="M173.13 188.736H166.09V181.597H173.13V188.736Z" fill="#08101E"/>
<path d="M2.49323 203.721V196.641H9.50713V203.721H2.49323Z" fill="#08101E"/>
<path d="M10.4454 233.01H3.40851V225.946H10.4454V233.01Z" fill="#08101E"/>
<path d="M171.857 225.923V232.957H164.801V225.923H171.857Z" fill="#08101E"/>
<path d="M61.7441 8.81207C62.8431 8.15442 63.801 7.57897 64.8574 6.94434C66.1105 9.0291 67.285 10.9889 68.5808 13.1427C67.5409 13.7774 66.5895 14.3561 65.4676 15.0401C64.2045 12.929 63.0104 10.9363 61.7441 8.81207Z" fill="#08101E"/>
</svg>
