<svg width="76" height="90" viewBox="0 0 76 90" fill="none" xmlns="http://www.w3.org/2000/svg">
<path d="M36.3636 90C28.656 89.9219 19.5052 88.8236 10.7015 85.5512C7.32325 84.2945 4.09874 82.732 1.14221 80.6181C0.355847 80.0555 -0.0197601 79.406 8.6677e-06 78.3881C0.054922 75.301 0.0197775 72.2116 0.0175809 69.1222C0.0153844 65.082 1.68475 61.9569 5.0103 59.7515C8.34683 57.5394 11.9975 55.9991 15.7711 54.7938C18.5541 53.9053 21.4162 53.2759 24.2387 52.5125C24.5748 52.4209 25.0295 52.3071 25.1767 52.0526C26.0685 50.4945 26.9097 48.903 27.7005 47.2891C27.7949 47.0971 27.5643 46.5994 27.3446 46.4074C23.8587 43.3671 21.526 39.5679 20.0895 35.1705C19.9116 34.6281 19.626 34.3558 19.0901 34.0499C18.1434 33.512 17.1593 32.7575 16.6124 31.8356C15.1671 29.3958 14.9013 26.677 15.8678 24.0028C16.2456 22.9604 17.1242 22.0452 17.9435 21.2505C18.3323 20.8733 18.5673 20.6322 18.6574 20.0675C19.0967 17.2861 19.3449 14.4334 20.1642 11.7659C22.2794 4.86618 27.1931 1.23217 34.1319 0.281249C37.5717 -0.189745 41.0071 -0.0982247 44.3787 0.7701C50.8673 2.43978 54.7288 6.80596 56.3213 13.2749C56.8572 15.458 56.9737 17.746 57.3097 19.9826C57.3646 20.3465 57.4745 20.8822 57.7205 21.005C59.4601 21.8733 60.1674 23.4269 60.453 25.2037C60.8286 27.5342 60.5804 29.8065 59.3898 31.8981C58.766 32.9941 57.9116 33.8111 56.6793 34.2062C56.4004 34.2955 56.0906 34.6258 55.9962 34.9116C54.5201 39.4161 52.1852 43.3359 48.5983 46.4476C48.3698 46.6462 48.2139 47.24 48.3369 47.4945C49.0727 49.0168 49.8635 50.5146 50.7245 51.9656C50.9046 52.2714 51.4362 52.441 51.836 52.5214C58.1532 53.7937 64.2024 55.8228 69.8453 59.0193C74.0231 61.3854 76.1867 64.8945 75.9868 69.8589C75.8748 72.6446 75.91 75.4416 75.9934 78.2296C76.0286 79.3837 75.6156 80.1002 74.7194 80.723C70.5988 83.598 66.0431 85.4843 61.2767 86.8838C54.1467 88.9754 46.3776 89.9933 36.3636 89.9955V90ZM54.6695 19.688C54.3466 19.6634 54.2368 19.6411 54.1291 19.6478C47.992 20.034 42.6083 18.1187 37.8594 14.2035C37.5036 13.9111 36.9347 13.7548 36.4646 13.7548C32.1045 13.7548 28.0322 14.8463 24.1553 16.9201C22.0927 18.025 20.8715 19.3889 21.2602 21.8599C21.2778 21.9693 21.2602 22.0831 21.2602 22.1947C21.2383 23.1524 20.7199 23.5318 19.8193 23.6769C19.3734 23.7506 18.754 24.0742 18.6002 24.447C17.7041 26.6413 17.8688 28.8065 19.1318 30.8289C19.3229 31.1347 19.7402 31.4628 20.0697 31.4829C21.8248 31.5811 21.8291 31.5476 22.319 33.2687C23.3074 36.7487 24.8779 39.9139 27.3073 42.5881C30.4176 46.0101 34.1715 47.9699 38.872 47.6552C43.6517 47.336 47.1464 44.76 49.9426 41.0323C51.8052 38.5478 53.0309 35.7353 53.8106 32.7173C54.0501 31.7887 54.5179 31.2151 55.614 31.3936C55.9567 31.4494 56.4663 31.2441 56.7123 30.9784C58.0653 29.5141 58.3663 25.9515 57.279 24.2439C57.0879 23.9425 56.62 23.6948 56.2554 23.6591C55.2076 23.5541 54.7332 23.1635 54.6805 22.0764C54.6431 21.3041 54.6739 20.5295 54.6739 19.6902L54.6695 19.688ZM19.5096 56.5326C18.3411 56.5349 17.9127 57.0795 18.0313 58.2671C18.2093 60.0394 18.2005 61.8319 18.3674 63.6065C19.0857 71.3009 21.1241 78.6269 24.476 85.5668C24.6583 85.9463 25.1876 86.3548 25.5896 86.3928C28.9745 86.7164 32.3659 86.9597 35.7552 87.2164C36.0297 87.2365 36.3087 87.1763 36.5767 87.1539V64.5172C34.6942 66.1735 32.8953 67.6735 31.1974 69.283C30.2704 70.1602 29.4577 70.1357 28.4517 69.5084C25.4952 67.6646 23.3052 65.1065 21.7654 61.9948C20.9022 60.247 20.2652 58.3854 19.5096 56.5349V56.5326ZM56.4619 56.5326C55.8029 58.2224 55.2713 59.8497 54.5509 61.3832C52.9408 64.8074 50.6454 67.6445 47.3836 69.6022C46.4786 70.1446 45.6879 70.1379 44.9037 69.3656C44.2469 68.7204 43.5331 68.1356 42.8434 67.5262C41.7341 66.5463 40.6227 65.5663 39.408 64.4949V87.2075C39.8868 87.2075 40.2866 87.2343 40.682 87.203C43.8516 86.9575 47.019 86.6785 50.1908 86.4687C50.9639 86.4173 51.3396 86.078 51.6559 85.4017C55.6799 76.7876 57.8061 67.7316 57.9731 58.1889C57.995 56.9411 57.5492 56.5349 56.4641 56.5349L56.4619 56.5326ZM54.4652 85.7655C55.9018 85.4329 57.0769 85.1896 58.2367 84.8883C63.2557 83.5869 68.0947 81.8235 72.4636 78.9305C72.848 78.6761 73.2522 78.1068 73.2609 77.6738C73.329 74.6626 73.329 71.6491 73.2829 68.6379C73.2478 66.3298 72.3955 64.361 70.6009 62.8877C67.6883 60.4948 64.231 59.2135 60.666 57.7916C60.5913 67.582 58.498 76.7675 54.463 85.7633L54.4652 85.7655ZM21.5721 85.8392C17.491 76.7876 15.446 67.5709 15.2989 57.5416C12.2632 59.0796 9.40776 60.3921 6.68406 61.948C3.94718 63.5105 2.64463 66.0128 2.71712 69.2562C2.77643 71.9683 2.76105 74.6849 2.70833 77.397C2.69296 78.176 2.97192 78.6046 3.59134 79.002C7.05088 81.2163 10.7828 82.8101 14.6816 83.9954C16.8716 84.6606 19.1011 85.1829 21.5743 85.8392H21.5721ZM22.073 14.9669C28.0827 11.5114 33.0886 10.8753 37.3454 11.0404C37.9802 11.065 38.7205 11.3485 39.2059 11.7614C41.4552 13.6722 43.9416 15.1254 46.7334 16.0093C49.1518 16.7727 51.6207 17.1544 54.2873 16.8151C54.1687 16.0964 54.0962 15.4803 53.9644 14.8754C52.7343 9.17656 49.769 5.01574 43.9724 3.48669C40.0054 2.43978 35.9946 2.44425 32.0276 3.47552C26.6308 4.87958 22.7165 9.41987 22.0708 14.9669H22.073ZM27.2019 54.3853C27.7224 54.8473 28.3111 55.6286 29.0909 56.0103C31.8453 57.3608 34.6613 58.5863 37.4685 59.8274C37.7452 59.9501 38.1384 59.9501 38.4305 59.8564C41.5408 58.8586 44.5918 57.709 47.2804 55.7759C47.9086 55.325 48.4116 54.6978 48.7784 54.3406C47.6186 52.2446 46.595 50.3941 45.5605 48.5257C40.515 51.1888 35.3993 51.1642 30.4286 48.5391C29.383 50.4343 28.3748 52.2624 27.2041 54.3853H27.2019ZM46.4039 67.0441C50.4324 64.2583 52.5389 60.3318 53.7535 55.7179C53.0397 55.5639 52.44 55.3965 51.8316 55.3206C51.6009 55.2915 51.2297 55.3965 51.1177 55.5706C49.6658 57.8139 47.4561 59.0416 45.1739 60.151C43.7703 60.8319 42.3118 61.3921 40.7764 62.0506C42.6545 63.7159 44.4886 65.3431 46.4017 67.0418L46.4039 67.0441ZM22.2575 55.7916C23.5183 60.3743 25.616 64.3186 29.6071 67.0351C31.5224 65.3387 33.3565 63.7114 35.2653 62.0216C34.2417 61.6176 33.3478 61.2984 32.4801 60.9189C29.9871 59.8296 27.3864 58.776 25.7104 56.5438C24.7374 55.2469 23.8587 55.2023 22.6177 55.6375C22.5518 55.6621 22.4859 55.6933 22.2553 55.7938L22.2575 55.7916Z" fill="#08101E"/>
</svg>
