<svg width="173" height="234" viewBox="0 0 173 234" fill="none" xmlns="http://www.w3.org/2000/svg">
<path d="M2.04325 234C0.34512 232.665 -0.00903456 230.883 4.63277e-05 228.79C0.0636125 215.006 0.00458677 201.217 0.0409103 187.433C0.0772339 171.295 10.2887 159.956 26.2574 158.16C37.0773 156.945 47.8881 155.647 58.6989 154.371C62.1269 153.965 62.9624 153 62.9715 149.513C62.9805 145.857 63.0441 142.201 62.9215 138.549C62.8943 137.717 62.4221 136.616 61.7819 136.127C50.7077 127.663 45.1003 116.346 44.2603 102.498C44.2421 102.201 44.1922 101.909 44.115 101.26C43.0707 101.26 42.0491 101.278 41.0275 101.26C32.5142 101.1 27.0111 95.5241 26.9612 87.0096C26.9476 84.8022 26.9657 82.5901 26.9612 80.3827C26.943 75.2274 29.1542 71.274 33.4677 68.5958C34.6073 67.8874 34.9615 67.1379 34.966 65.8719C34.9978 59.4004 34.8934 52.9151 35.2521 46.4618C35.638 39.4601 37.8129 32.8926 41.1592 26.7364C42.2716 24.6889 44.1105 24.0536 45.8949 24.9859C47.5657 25.8589 48.2922 27.8149 47.2479 29.6933C42.4487 38.3175 41.4225 47.6592 41.7358 57.3026C41.8357 60.3236 41.7494 63.3491 41.7494 66.4889H51.0346C51.0346 63.1069 51.0165 59.8574 51.0346 56.6033C51.0846 48.0294 58.5173 43.226 66.2633 46.7863C72.243 49.5331 78.2183 52.2844 84.139 55.1591C85.7736 55.9498 87.0903 56.0321 88.7703 55.2094C94.6774 52.3164 100.666 49.5879 106.646 46.832C114.528 43.2032 121.92 47.9929 121.961 56.7405C121.975 59.926 121.961 63.1115 121.961 66.4615H131.251C131.251 63.5137 131.146 60.5658 131.301 57.6317C131.36 56.5028 131.705 55.0677 132.463 54.3867C133.208 53.7195 134.901 53.3264 135.714 53.7378C136.731 54.2496 137.798 55.6573 137.916 56.7724C138.225 59.7889 138.093 62.8555 138.034 65.8994C138.007 67.1836 138.42 67.9057 139.551 68.6141C143.778 71.2512 145.993 75.1314 146.025 80.1907C146.039 82.6267 146.057 85.0673 146.025 87.5032C145.921 95.1905 140.713 100.711 133.067 101.219C131.723 101.306 130.365 101.232 129.194 101.232C128.445 105.295 127.991 109.153 127.001 112.864C124.472 122.375 119.169 130.062 111.364 136.031C110.669 136.561 110.106 137.713 110.069 138.599C109.929 142.324 109.997 146.063 110.015 149.792C110.029 152.968 110.891 153.978 114.092 154.358C122.506 155.345 130.924 156.245 139.333 157.251C143.233 157.717 147.16 158.137 150.997 158.951C163.388 161.57 172.255 172.077 172.841 184.75C173.036 189.005 172.968 193.279 172.932 197.543C172.914 199.992 171.461 201.546 169.472 201.487C167.561 201.427 166.217 199.933 166.171 197.588C166.103 194.161 166.162 190.733 166.144 187.305C166.076 174.737 158.294 166.314 145.871 164.997C134.67 163.809 123.487 162.402 112.312 160.971C106.669 160.249 103.291 156.268 103.209 150.56C103.163 147.388 103.2 144.216 103.2 140.766C91.9894 145.171 81.0016 145.217 69.8956 140.784V149.308C73.6143 148.819 76.9651 149.532 79.6621 152.278C81.501 154.148 82.45 156.414 82.6497 159.01C83.0448 164.097 79.3488 168.832 74.1864 169.879C68.6788 170.998 64.1838 167.785 61.8 160.902C56.7511 161.506 51.6612 162.104 46.5714 162.721C39.1387 163.617 31.6833 164.353 24.2869 165.477C17.1357 166.561 12.1003 170.742 8.66775 177.493C13.3535 177.538 17.1175 179.216 19.2107 183.192C20.205 185.079 20.7499 187.593 20.482 189.695C19.7555 195.358 13.7485 198.932 7.01049 198.027V227.039H26.9521C26.9521 222.784 26.9521 218.621 26.9521 214.453C26.9521 211.633 26.9294 208.818 26.9612 205.998C26.9884 203.475 28.2552 202.012 30.3257 202.012C32.3961 202.012 33.7265 203.479 33.7446 205.998C33.7855 212.547 33.7583 219.096 33.7673 225.645C33.7673 226.08 33.8264 226.518 33.8627 227.053H139.224C139.224 222.177 139.224 217.401 139.224 212.625C139.224 210.417 139.187 208.205 139.233 205.998C139.283 203.479 140.577 202.017 142.647 202.008C144.718 202.003 146.007 203.466 146.016 205.989C146.043 212.913 146.025 219.841 146.025 226.962H166.144C166.144 223.2 166.144 219.489 166.144 215.778C166.144 214.864 166.103 213.945 166.185 213.036C166.38 210.842 167.71 209.567 169.672 209.631C171.543 209.691 172.827 210.925 172.9 213.041C173.005 216.007 172.946 218.982 172.95 221.948C172.95 224.233 172.855 226.523 172.977 228.799C173.091 230.901 172.628 232.67 170.939 234.009H2.04325V234ZM51.1164 73.6049C51.0891 74.1899 51.0483 74.6378 51.0483 75.0811C51.0483 84.2949 51.0165 93.5132 51.0937 102.727C51.1118 104.765 51.3615 106.84 51.7929 108.837C55.7295 127.046 72.0569 138.938 90.4593 137.064C108.217 135.258 121.838 119.824 121.934 101.36C121.979 92.7545 121.943 84.1486 121.934 75.5427C121.934 74.8846 121.856 74.231 121.811 73.5592C121.157 73.5226 120.708 73.4815 120.258 73.4724C116.108 73.3947 115.155 72.4486 115.15 68.3582C115.15 64.6242 115.159 60.8949 115.15 57.1609C115.132 52.7643 113.012 51.4115 109.021 53.2624C102.437 56.32 95.8397 59.3592 89.2924 62.499C87.3536 63.4314 85.651 63.4222 83.6986 62.4853C77.0196 59.2724 70.2861 56.1692 63.5526 53.0751C60.0837 51.4846 57.8862 52.8968 57.8408 56.6993C57.8044 59.9762 57.8317 63.2486 57.8317 66.5255C57.8317 72.9925 57.759 73.0702 51.1164 73.6095V73.6049ZM44.0968 94.281V73.5181C42.6212 73.5181 41.2772 73.4404 39.9378 73.5318C36.4326 73.774 33.9217 76.338 33.7991 79.8937C33.7083 82.6221 33.7038 85.3598 33.8127 88.0882C33.9399 91.324 36.2192 93.8285 39.4202 94.249C40.8867 94.441 42.4033 94.281 44.0968 94.281ZM128.862 94.281C132.054 94.5049 135.137 94.8157 137.526 92.1421C140.018 89.3542 140.014 78.4723 137.535 75.6981C135.142 73.0199 132.063 73.3672 128.862 73.6095V94.2764V94.281ZM75.8527 159.618C75.8754 157.667 74.2091 155.971 72.2794 155.985C70.4087 155.998 68.8468 157.53 68.7741 159.426C68.697 161.433 70.2271 163.096 72.2022 163.151C74.141 163.206 75.83 161.574 75.8572 159.618H75.8527ZM13.8983 187.886C13.862 185.943 12.3364 184.412 10.4249 184.394C8.42711 184.376 6.83341 186.016 6.87428 188.05C6.9106 189.979 8.44527 191.505 10.3613 191.519C12.3818 191.537 13.9392 189.938 13.8983 187.886Z" fill="#08101E"/>
<path d="M105.565 0C106.405 0.283359 107.241 0.58957 108.09 0.845508C116.108 3.24949 121.707 10.5391 121.934 18.9348C121.984 20.7492 121.943 22.5636 121.943 23.5828C125.539 25.708 128.867 27.2162 131.641 29.4282C135.314 32.3578 137.308 36.5122 137.816 41.2425C138.107 43.9207 135.95 46.0139 133.689 45.0907C132.586 44.6428 131.759 43.1803 131.11 42.0057C130.061 40.0999 129.512 37.8787 128.299 36.1055C126.179 33.0022 123.042 31.3935 119.278 31.1055C116.195 30.8725 115.191 29.7847 115.164 26.6221C115.141 24.1861 115.196 21.7501 115.137 19.3141C114.987 12.9934 110.428 7.28965 104.203 7.08398C95.3948 6.78691 86.5046 6.91031 77.737 7.7741C69.6732 8.56934 62.7127 12.6186 56.6012 17.9933C55.9837 18.5372 55.3163 19.113 54.5671 19.401C52.9416 20.0271 51.5477 19.4513 50.6532 18.0025C49.6316 16.3434 50.0221 14.8032 51.4206 13.5007C56.3061 8.9441 61.8273 5.35641 68.143 3.25863C72.3475 1.86469 76.7381 1.06488 81.047 0C89.2198 0 97.3926 0 105.565 0Z" fill="#08101E"/>
<path d="M128.758 212.515C123.051 212.538 118.351 207.867 118.315 202.136C118.279 196.441 122.982 191.656 128.654 191.619C134.297 191.583 139.069 196.341 139.101 202.035C139.133 207.744 134.447 212.492 128.753 212.515H128.758ZM128.663 198.498C126.737 198.525 125.076 200.267 125.139 202.191C125.207 204.156 126.915 205.742 128.867 205.655C130.719 205.568 132.277 203.95 132.286 202.099C132.295 200.175 130.579 198.47 128.663 198.498Z" fill="#08101E"/>
<path d="M33.7719 187.84C33.8127 182.145 38.394 177.548 44.0514 177.516C49.7678 177.484 54.449 182.196 54.449 187.977C54.449 193.786 49.8178 198.411 44.0378 198.384C38.2805 198.356 33.731 193.685 33.7764 187.844L33.7719 187.84ZM47.6202 188.041C47.6611 186.016 46.0492 184.366 44.056 184.389C42.149 184.412 40.6234 185.952 40.5871 187.89C40.5507 189.947 42.1036 191.537 44.1331 191.514C46.0492 191.496 47.5839 189.965 47.6202 188.041Z" fill="#08101E"/>
<path d="M58.1768 226.756C52.4013 226.751 47.8336 222.108 47.8654 216.272C47.8972 210.559 52.424 205.993 58.1132 205.943C63.8659 205.893 68.5471 210.536 68.5698 216.322C68.5925 222.113 63.9658 226.761 58.1768 226.756ZM61.7455 216.377C61.7592 214.439 60.279 212.899 58.3357 212.826C56.3015 212.753 54.6897 214.297 54.6806 216.331C54.6715 218.283 56.1335 219.818 58.0678 219.882C60.0974 219.951 61.7319 218.388 61.7455 216.372V216.377Z" fill="#08101E"/>
<path d="M111.009 173.713C111.032 179.472 106.414 184.165 100.698 184.193C94.9861 184.22 90.2913 179.568 90.2414 173.832C90.1914 168.156 94.9044 163.366 100.584 163.316C106.246 163.265 110.987 167.991 111.009 173.713ZM104.19 173.713C104.158 171.752 102.46 170.125 100.521 170.198C98.6593 170.267 97.0974 171.867 97.0702 173.727C97.0429 175.678 98.6866 177.337 100.648 177.333C102.632 177.328 104.221 175.701 104.19 173.713Z" fill="#08101E"/>
<path d="M89.7646 195.011C89.7873 200.788 85.2015 205.49 79.4941 205.536C73.8277 205.582 69.1374 200.874 69.1147 195.12C69.0965 189.316 73.6551 184.659 79.3852 184.636C85.1288 184.613 89.7419 189.225 89.7646 195.011ZM79.4487 198.667C81.4057 198.662 82.9721 197.017 82.9449 195.002C82.9131 192.986 81.3103 191.432 79.3216 191.501C77.4237 191.565 75.9617 193.087 75.939 195.02C75.9163 197.035 77.4918 198.676 79.4487 198.667Z" fill="#08101E"/>
<path d="M33.3678 173.823C33.336 175.715 31.6969 177.282 29.8444 177.182C28.0736 177.086 26.5889 175.505 26.6116 173.731C26.6343 171.848 28.2461 170.345 30.1577 170.422C31.9784 170.496 33.3995 171.999 33.3678 173.823Z" fill="#08101E"/>
<path d="M89.7374 216.327C89.751 218.242 88.1754 219.832 86.3184 219.777C84.5658 219.727 83.0266 218.15 83.0084 216.386C82.9857 214.508 84.593 212.935 86.4819 212.977C88.3071 213.018 89.7237 214.476 89.7374 216.327Z" fill="#08101E"/>
<path d="M103.831 202.035C103.858 203.968 102.328 205.532 100.444 205.495C98.6729 205.463 97.161 203.932 97.1292 202.14C97.0928 200.235 98.6321 198.713 100.562 198.74C102.437 198.767 103.804 200.148 103.831 202.035Z" fill="#08101E"/>
<path d="M156.863 184.179C154.947 184.152 153.508 182.593 153.59 180.632C153.667 178.804 155.174 177.351 156.959 177.383C158.734 177.415 160.246 178.937 160.278 180.728C160.314 182.639 158.766 184.206 156.863 184.179Z" fill="#08101E"/>
<path d="M156.868 219.773C154.997 219.75 153.512 218.127 153.59 216.199C153.667 214.343 155.124 212.949 156.959 212.977C158.866 213.004 160.359 214.599 160.269 216.514C160.182 218.306 158.629 219.795 156.868 219.773Z" fill="#08101E"/>
<path d="M132.036 173.731C132.059 175.637 130.497 177.228 128.64 177.186C126.865 177.145 125.389 175.628 125.366 173.818C125.344 171.949 126.706 170.496 128.554 170.422C130.515 170.34 132.013 171.766 132.036 173.731Z" fill="#08101E"/>
<path d="M142.838 184.65C144.736 184.668 146.22 186.254 146.143 188.183C146.071 190.002 144.559 191.469 142.779 191.45C140.904 191.432 139.414 189.828 139.482 187.899C139.551 186.057 141.017 184.631 142.838 184.65Z" fill="#08101E"/>
<path d="M86.4546 102.891C91.7669 102.873 96.4073 107.087 96.8976 112.37C97.1247 114.802 96.0213 116.484 94.0054 116.794C92.0167 117.101 90.5637 115.798 90.1278 113.316C89.7328 111.072 88.3071 109.633 86.4138 109.779C84.3388 109.939 83.181 111.15 82.8495 113.248C82.4545 115.771 81.0106 117.078 79.0401 116.813C76.9333 116.534 75.8118 114.788 76.0933 112.215C76.6609 107.023 81.2286 102.91 86.4546 102.891Z" fill="#08101E"/>
<path d="M65.4279 92.7179C64.0793 91.5068 62.5992 90.8029 62.3494 89.7929C62.0679 88.6458 62.4766 86.6942 63.3165 86.027C65.664 84.1531 68.3474 82.6861 70.9808 81.2099C72.3884 80.4192 74.0275 80.73 74.7903 82.0965C75.3669 83.1294 75.7437 85.3231 75.2034 85.7665C72.2204 88.2207 68.9331 90.2956 65.4233 92.7225L65.4279 92.7179Z" fill="#08101E"/>
<path d="M100.139 80.5746C101.279 80.9814 101.965 81.1139 102.528 81.4476C104.802 82.7958 107.077 84.1486 109.284 85.6066C111.096 86.7994 111.541 88.7555 110.51 90.3277C109.429 91.9821 107.595 92.4575 105.742 91.388C103.386 90.0306 101.084 88.5818 98.8 87.101C97.3425 86.155 96.8159 84.6057 97.5423 83.1294C98.069 82.06 99.3086 81.3516 100.135 80.5701L100.139 80.5746Z" fill="#08101E"/>
<path d="M111.009 106.511C111.046 108.399 109.456 110.026 107.604 110.003C105.851 109.98 104.299 108.431 104.249 106.662C104.199 104.793 105.779 103.211 107.681 103.23C109.516 103.248 110.973 104.688 111.009 106.511Z" fill="#08101E"/>
<path d="M103.826 124.308C103.726 126.131 102.196 127.553 100.403 127.493C98.523 127.429 97.0156 125.757 97.1427 123.878C97.2608 122.073 98.8273 120.633 100.607 120.688C102.491 120.748 103.935 122.366 103.831 124.308H103.826Z" fill="#08101E"/>
<path d="M75.671 124.157C75.6392 125.994 74.1863 127.471 72.3883 127.493C70.5221 127.521 68.9194 125.903 68.9557 124.029C68.992 122.247 70.5131 120.72 72.2884 120.688C74.1727 120.656 75.7028 122.224 75.671 124.157Z" fill="#08101E"/>
<path d="M86.3048 96.2782C84.4568 96.2188 82.8949 94.4958 83.022 92.6539C83.1446 90.8349 84.6566 89.473 86.5 89.5187C88.4478 89.5644 89.8418 91.1 89.7283 93.079C89.6284 94.9071 88.0937 96.3422 86.3048 96.2828V96.2782Z" fill="#08101E"/>
<path d="M82.6452 71.7904C82.6996 73.6597 81.1105 75.3187 79.2671 75.3096C77.4918 75.3004 76.0025 73.8059 75.9525 71.987C75.9071 70.1086 77.242 68.6278 79.0718 68.5272C81.0106 68.4175 82.5861 69.8572 82.6406 71.7904H82.6452Z" fill="#08101E"/>
<path d="M107.613 67.2933C107.627 69.1625 106.001 70.7896 104.167 70.7393C102.387 70.689 100.934 69.1717 100.921 67.3527C100.907 65.4789 102.274 64.0301 104.112 63.9615C106.047 63.8884 107.599 65.3646 107.613 67.2933Z" fill="#08101E"/>
<path d="M65.228 99.7425C67.0986 99.7745 68.6106 101.415 68.5198 103.316C68.4335 105.181 66.9942 106.543 65.1326 106.52C63.1984 106.497 61.7727 104.966 61.8544 102.997C61.9271 101.187 63.4572 99.7151 65.228 99.7425Z" fill="#08101E"/>
</svg>
